<svg width="32" height="39" viewBox="0 0 32 39" fill="none" xmlns="http://www.w3.org/2000/svg">
<path d="M15.8976 32.8487C16.7478 32.8487 17.4528 32.5744 18.0126 32.0259C18.572 31.4773 18.8517 30.7807 18.8517 29.936C18.8517 29.1186 18.5738 28.4253 18.0179 27.8561C17.4616 27.2864 16.7582 27.0016 15.9076 27.0016C15.0575 27.0016 14.3543 27.2846 13.798 27.8508C13.2421 28.4165 12.9642 29.113 12.9642 29.9401C12.9642 30.7672 13.2405 31.4588 13.7933 32.0147C14.3456 32.5707 15.0471 32.8487 15.8976 32.8487ZM15.8976 22.4233C16.7478 22.4233 17.4528 22.148 18.0126 21.5975C18.572 21.0466 18.8517 20.35 18.8517 19.5076C18.8517 18.6653 18.5738 17.9661 18.0179 17.4101C17.4616 16.8545 16.7582 16.5767 15.9076 16.5767C15.0575 16.5767 14.3543 16.852 13.798 17.4025C13.2421 17.9534 12.9642 18.65 12.9642 19.4924C12.9642 20.3347 13.2405 21.0339 13.7933 21.5899C14.3456 22.1455 15.0471 22.4233 15.8976 22.4233ZM5.61964 26.756V22.4731C3.90949 22.0437 2.54535 21.2111 1.52721 19.9753C0.509069 18.7395 0 17.3218 0 15.7223H5.61964V11.4393C3.90162 11.0162 2.53551 10.1785 1.52131 8.92629C0.507103 7.67408 0 6.24565 0 4.64102H5.61964V3.36985C5.61964 2.38605 5.94125 1.57846 6.58447 0.947073C7.22769 0.31569 8.00684 0 8.9219 0H22.894C23.8024 0 24.5797 0.31569 25.2261 0.947073C25.8729 1.57846 26.1963 2.38605 26.1963 3.36985V4.64102H32C32 6.23862 31.4614 7.66528 30.3843 8.92102C29.3071 10.1767 27.9111 11.0162 26.1963 11.4393V15.7223H32C32 17.314 31.4614 18.7311 30.3843 19.9735C29.3071 21.216 27.9111 22.0492 26.1963 22.4731V26.756H32C32 28.3603 31.4614 29.7885 30.3843 31.0407C29.3071 32.2929 27.9111 33.1308 26.1963 33.5543V35.7204C26.1963 36.6222 25.8729 37.3942 25.2261 38.0365C24.5797 38.6788 23.8024 39 22.894 39H8.9219C8.00684 39 7.22769 38.6788 6.58447 38.0365C5.94125 37.3942 5.61964 36.6222 5.61964 35.7204V33.5543C3.90162 33.1308 2.53551 32.2929 1.52131 31.0407C0.507103 29.7885 0 28.3603 0 26.756H5.61964ZM8.9219 35.7204H22.894V3.27959H8.9219V35.7204Z" fill="#DCFCE7"/>
<circle cx="16" cy="9" r="3" fill="#22C55E"/>
</svg>
